<svg width="61" height="60" viewBox="0 0 61 60" fill="none" xmlns="http://www.w3.org/2000/svg">
<path d="M60.9282 30C60.9282 46.5685 47.4967 60 30.9282 60C14.3597 60 0.928208 46.5685 0.928208 30C0.928208 13.4315 14.3597 0 30.9282 0C47.4967 0 60.9282 13.4315 60.9282 30Z" fill="#388E3C"/>
<g clip-path="url(#clip0_389_360)">
<path d="M38.5 15C34.3575 15 31 18.3575 31 22.5C31 26.6425 34.3575 30 38.5 30C42.6425 30 46 26.6425 46 22.5C46 18.3575 42.6425 15 38.5 15ZM43.1038 22.14L39.725 25.4075C39.16 25.965 38.41 26.2463 37.6587 26.2463C36.9075 26.2463 36.155 25.965 35.58 25.4037L33.8875 23.7388C33.3938 23.255 33.3875 22.4638 33.87 21.9713C34.3525 21.4775 35.1437 21.47 35.6375 21.9538L37.33 23.6175C37.51 23.795 37.805 23.7913 37.9825 23.615L41.3737 20.335C41.87 19.8588 42.6625 19.8725 43.1412 20.3713C43.6187 20.8688 43.6025 21.66 43.105 22.1388L43.1038 22.14ZM19.75 16.875V21.25H19.125C17.3987 21.25 16 19.8513 16 18.125V16.875C16 15.84 16.84 15 17.875 15C18.91 15 19.75 15.84 19.75 16.875ZM45.99 41.46C45.9725 41.655 45.9525 41.8037 45.9312 41.875C45.3937 43.6825 43.7188 45 41.7375 45H30.05C30.65 44.105 31 43.03 31 41.875C31 40.1488 32.3988 38.75 34.125 38.75H43.4975C44.96 38.75 46.1212 40.0037 45.9887 41.46H45.99ZM28.5 41.875C28.5 43.7075 26.9237 45.1712 25.0525 44.9837C23.4262 44.8212 22.25 43.3313 22.25 41.6963V16.875C22.25 16.205 22.0975 15.5688 21.8275 15H31.9088C29.825 16.8338 28.5013 19.5125 28.5013 22.5C28.5013 28.0138 32.9875 32.5 38.5012 32.5C39.3662 32.5 40.2 32.3787 41.0012 32.1713V36.25H34.1263C31.02 36.25 28.5013 38.7687 28.5013 41.875H28.5Z" fill="#E8F5E9"/>
</g>
<defs>
<clipPath id="clip0_389_360">
<rect width="30" height="30" fill="white" transform="translate(16 15)"/>
</clipPath>
</defs>
</svg>
