<svg width="14" height="14" viewBox="0 0 14 14" fill="none" xmlns="http://www.w3.org/2000/svg">
<path d="M12.8333 5.25H7.58333V8.75H12.8333C13.475 8.75 14 8.225 14 7.58333V6.41667C14 5.775 13.475 5.25 12.8333 5.25ZM12.8333 0H7.58333V3.5H12.8333C13.475 3.5 14 2.975 14 2.33333V1.16667C14 0.525 13.475 0 12.8333 0ZM12.8333 10.5H7.58333V14H12.8333C13.475 14 14 13.475 14 12.8333V11.6667C14 11.025 13.475 10.5 12.8333 10.5ZM4.66667 7.58333H1.75C0.7875 7.58333 0 8.37083 0 9.33333V14H6.41667V9.33333C6.41667 8.37083 5.62917 7.58333 4.66667 7.58333ZM4.66667 0H1.75C0.7875 0 0 0.7875 0 1.75V6.41667H6.41667V1.75C6.41667 0.7875 5.62917 0 4.66667 0Z" fill="white"/>
</svg>
