<svg width="61" height="60" viewBox="0 0 61 60" fill="none" xmlns="http://www.w3.org/2000/svg">
<path d="M60.9282 30C60.9282 46.5685 47.4967 60 30.9282 60C14.3597 60 0.928208 46.5685 0.928208 30C0.928208 13.4315 14.3597 0 30.9282 0C47.4967 0 60.9282 13.4315 60.9282 30Z" fill="#D32F2F"/>
<g clip-path="url(#clip0_389_358)">
<path d="M27.25 20C27.25 17.2387 31.4475 15 36.625 15C41.8025 15 46 17.2387 46 20C46 22.7613 41.8025 25 36.625 25C31.4475 25 27.25 22.7613 27.25 20ZM36.625 30C41.8025 30 46 27.7613 46 25V22.5C46 25.2613 41.8025 27.5 36.625 27.5C31.4475 27.5 27.25 25.2613 27.25 22.5V25C27.25 27.7613 31.4475 30 36.625 30ZM23.5 30C19.3575 30 16 33.3575 16 37.5C16 41.6425 19.3575 45 23.5 45C27.6425 45 31 41.6425 31 37.5C31 33.3575 27.6425 30 23.5 30ZM24.75 37.5V41.25H22.25V37.5H19.1825L22.5412 34.1413C23.0625 33.62 23.9075 33.62 24.4288 34.1413L27.7887 37.5H24.75ZM36.625 42.5638C35.1225 42.5638 33.7025 42.375 32.4438 42.04C32.0712 42.7812 31.6112 43.4712 31.0737 44.0938C32.6275 44.7037 34.5475 45.065 36.625 45.065C41.8025 45.065 46 42.8263 46 40.065V37.565C46 40.3263 41.8025 42.5638 36.625 42.5638ZM36.625 32.5637C34.81 32.5637 33.1163 32.2887 31.6812 31.8125C32.2938 32.6812 32.77 33.6513 33.0812 34.6938C34.175 34.9325 35.3713 35.0638 36.625 35.0638C41.8025 35.0638 46 32.825 46 30.0637V27.5637C46 30.325 41.8025 32.5637 36.625 32.5637ZM36.625 37.5638C35.5275 37.5638 34.475 37.4625 33.4963 37.2775C33.4987 37.3725 33.5 37.4675 33.5 37.5638C33.5 38.3088 33.4175 39.0337 33.2638 39.7325C34.3075 39.9462 35.44 40.0638 36.625 40.0638C41.8025 40.0638 46 37.825 46 35.0638V32.5637C46 35.325 41.8025 37.5638 36.625 37.5638Z" fill="#FFCDD2"/>
</g>
<defs>
<clipPath id="clip0_389_358">
<rect width="30" height="30" fill="white" transform="translate(16 15)"/>
</clipPath>
</defs>
</svg>
