<svg width="14" height="14" viewBox="0 0 14 14" fill="none" xmlns="http://www.w3.org/2000/svg">
<g clip-path="url(#clip0_202_1152)">
<path d="M6.5625 13.125H0.875V0.875H6.5625C6.804 0.875 7 0.679 7 0.4375C7 0.196 6.804 0 6.5625 0H0.4375C0.196 0 0 0.196 0 0.4375V13.5625C0 13.804 0.196 14 0.4375 14H6.5625C6.804 14 7 13.804 7 13.5625C7 13.321 6.804 13.125 6.5625 13.125Z" fill="white"/>
<path d="M13.8733 6.69468L10.8545 3.63262C10.6835 3.45981 10.4065 3.46024 10.2359 3.63262C10.0648 3.80499 10.0648 4.08499 10.2359 4.25737L12.5109 6.56518H3.50147C3.25997 6.56518 3.06396 6.76293 3.06396 7.00706C3.06396 7.25118 3.25997 7.44893 3.50147 7.44893H12.5109L10.2359 9.75674C10.0648 9.92956 10.0648 10.2091 10.2359 10.3815C10.407 10.5543 10.6839 10.5543 10.8545 10.3815L13.8728 7.31943C14.0417 7.14924 14.0435 6.86443 13.8733 6.69468Z" fill="white"/>
</g>
<defs>
<clipPath id="clip0_202_1152">
<rect width="14" height="14" fill="white"/>
</clipPath>
</defs>
</svg>
