<svg width="60" height="60" viewBox="0 0 60 60" fill="none" xmlns="http://www.w3.org/2000/svg">
<path d="M57.8723 24.6027C57.1536 22.9359 56.1268 21.4197 54.8457 20.1338C53.5641 18.8542 52.0464 17.8353 50.3768 17.1338C48.6686 16.4071 46.8329 16.0432 44.8696 16.0421C43.5166 16.0361 42.1697 16.2231 40.8696 16.5977C40.3577 16.7454 39.8555 16.9244 39.3657 17.1338C37.689 17.8394 36.1619 18.8575 34.8657 20.1338C33.1929 21.7805 32.1034 23.7894 31.3218 25.9844C31.044 26.7621 30.784 27.5449 30.5029 28.3177L28.9768 32.5144C28.3235 30.8795 27.7055 29.2712 27.1229 27.6894C26.5403 26.1075 26.0138 24.6273 25.5435 23.2488L27.2323 18.5049C27.2344 18.4042 27.2437 18.3037 27.2601 18.2044C27.2748 18.105 27.2833 18.0048 27.2857 17.9044C27.2857 17.0321 26.777 16.5964 25.7596 16.5971H21.4001C20.8535 16.5971 20.4468 16.7232 20.1746 16.9788C19.9023 17.2344 19.6746 17.596 19.4929 18.0699L14.314 32.4632C13.8036 31.1192 13.3127 29.7651 12.8412 28.401C12.3697 27.037 11.861 25.5925 11.3151 24.0677L9.18901 17.906C9.02886 17.5377 8.78589 17.2113 8.47901 16.9521C8.19012 16.7166 7.82512 16.5988 7.39067 16.5988H2.43067C1.48623 16.5988 1.01123 16.9999 1.01123 17.7966C1.0126 18.02 1.05012 18.2418 1.12234 18.4532C1.15901 18.4894 1.19512 18.5794 1.23345 18.7255C1.27179 18.8716 1.3879 19.1966 1.58679 19.7071C1.78567 20.2177 2.06956 20.9499 2.43401 21.9149C2.79845 22.8799 3.31234 24.2044 3.98567 25.8927C4.65901 27.581 5.49456 29.6827 6.49345 32.191C7.49234 34.6994 8.72067 37.7316 10.174 41.2944C10.3612 41.7759 10.5893 42.2406 10.8557 42.6832C11.1279 43.1377 11.6073 43.3649 12.3001 43.3649H16.3335C16.8412 43.3649 17.2227 43.2014 17.4779 42.8744C17.7077 42.5865 17.9079 42.2762 18.0757 41.9482L18.1312 41.7855C18.1312 41.7127 18.1479 41.6744 18.1868 41.6744L19.3873 38.6744C19.5696 38.1666 19.769 37.656 19.9873 37.1482C20.2057 36.6405 20.4029 36.1299 20.5851 35.6221L21.6762 33.0049C21.859 33.4794 22.0129 33.8777 22.139 34.2027C22.2651 34.5277 22.4196 34.896 22.6023 35.2944L24.9473 41.1277C24.984 41.2388 25.0373 41.4194 25.1101 41.6744C25.1887 41.941 25.2989 42.1973 25.4385 42.4377C25.5881 42.6968 25.793 42.9199 26.0385 43.091C26.2912 43.2738 26.6362 43.3632 27.074 43.3632H30.9946C31.6118 43.3632 32.0579 43.156 32.3279 42.7377C32.5979 42.3194 32.7907 41.9999 32.9001 41.7838L34.0196 38.9899C34.2854 39.3052 34.5673 39.6068 34.864 39.8932C36.1661 41.1548 37.6922 42.1623 39.364 42.8638C41.0677 43.5905 42.9023 43.9544 44.8679 43.9555C46.8335 43.9566 48.6692 43.5927 50.3751 42.8638C53.7354 41.4632 56.4221 38.8148 57.8707 35.4749C58.614 33.786 58.9862 31.9784 58.9873 30.0521C58.9974 28.178 58.6177 26.3223 57.8723 24.6027ZM51.249 32.8616C50.8967 33.6975 50.3986 34.464 49.7779 35.1255C49.1626 35.7769 48.421 36.2962 47.5984 36.6516C46.7346 37.0106 45.8084 37.1955 44.8729 37.1955C43.9374 37.1955 43.0112 37.0106 42.1473 36.6516C41.3234 36.2971 40.5808 35.7777 39.9651 35.1255C38.6871 33.7705 37.9829 31.9736 38.0001 30.111C37.9992 29.6577 38.0386 29.2052 38.1179 28.7588C38.2002 28.2792 38.3338 27.8099 38.5162 27.3588C38.6988 26.9038 38.928 26.4689 39.2001 26.061C39.4242 25.7156 39.6797 25.3916 39.9635 25.0932C40.5823 24.4371 41.3236 23.9087 42.1457 23.5377C43.0048 23.1604 43.9329 22.9655 44.8712 22.9655C45.8096 22.9655 46.7377 23.1604 47.5968 23.5377C48.4175 23.9096 49.1578 24.4379 49.7762 25.0932C50.3981 25.7541 50.8969 26.5208 51.249 27.3571C51.975 29.1201 51.975 31.0986 51.249 32.8616Z" fill="#1A73E8"/>
</svg>
