<svg width="14" height="14" viewBox="0 0 14 14" fill="none" xmlns="http://www.w3.org/2000/svg">
<path d="M11.6667 0.583252H2.33333C1.05 0.583252 0 1.63325 0 2.91659V8.74992C0 10.0333 1.05 11.0833 2.33333 11.0833V12.8333C2.33333 13.3583 2.975 13.5916 3.325 13.2416L5.48333 11.0833H11.6667C12.95 11.0833 14 10.0333 14 8.74992V2.91659C14 1.63325 12.95 0.583252 11.6667 0.583252ZM8.16667 7.58325H4.66667C4.31667 7.58325 4.08333 7.34992 4.08333 6.99992C4.08333 6.64992 4.31667 6.41658 4.66667 6.41658H8.16667C8.51667 6.41658 8.75 6.64992 8.75 6.99992C8.75 7.34992 8.51667 7.58325 8.16667 7.58325ZM9.33333 5.24992H4.66667C4.31667 5.24992 4.08333 5.01659 4.08333 4.66658C4.08333 4.31659 4.31667 4.08325 4.66667 4.08325H9.33333C9.68333 4.08325 9.91667 4.31659 9.91667 4.66658C9.91667 5.01659 9.68333 5.24992 9.33333 5.24992Z" fill="white"/>
</svg>
