<svg width="60" height="60" viewBox="0 0 60 60" fill="none" xmlns="http://www.w3.org/2000/svg">
<path d="M14.9014 45.2711C17.5593 45.2711 19.7139 43.1164 19.7139 40.4585C19.7139 37.8006 17.5593 35.646 14.9014 35.646C12.2435 35.646 10.0889 37.8006 10.0889 40.4585C10.0889 43.1164 12.2435 45.2711 14.9014 45.2711Z" fill="#1565C0"/>
<path d="M23.8076 53.1961V54.8648C23.8076 56.018 22.8736 56.9531 21.7193 56.9531H8.0834C6.93027 56.9531 5.99512 56.018 5.99512 54.8648V53.1961C5.99512 50.9473 7.30996 48.9914 9.20957 48.0586C10.7963 49.2516 12.7686 49.9582 14.9014 49.9582C17.0342 49.9582 19.0064 49.2516 20.5943 48.0586C22.4928 48.9914 23.8076 50.9473 23.8076 53.1961Z" fill="#1565C0"/>
<path d="M45.0977 45.2711C47.7556 45.2711 49.9102 43.1164 49.9102 40.4585C49.9102 37.8006 47.7556 35.646 45.0977 35.646C42.4398 35.646 40.2852 37.8006 40.2852 40.4585C40.2852 43.1164 42.4398 45.2711 45.0977 45.2711Z" fill="#1565C0"/>
<path d="M54.0049 53.1961V54.8648C54.0049 56.018 53.0697 56.9531 51.9166 56.9531H38.2807C37.1264 56.9531 36.1924 56.018 36.1924 54.8648V53.1961C36.1924 50.9473 37.5072 48.9914 39.4057 48.0586C40.9936 49.2516 42.9658 49.9582 45.0986 49.9582C47.2314 49.9582 49.2037 49.2516 50.7904 48.0586C52.69 48.9914 54.0049 50.9473 54.0049 53.1961Z" fill="#1565C0"/>
<path d="M30 12.672C32.6579 12.672 34.8126 10.5173 34.8126 7.85941C34.8126 5.20152 32.6579 3.04688 30 3.04688C27.3421 3.04688 25.1875 5.20152 25.1875 7.85941C25.1875 10.5173 27.3421 12.672 30 12.672Z" fill="#1565C0"/>
<path d="M38.9062 20.597V22.2657C38.9062 23.4188 37.9711 24.354 36.818 24.354H23.182C22.0289 24.354 21.0938 23.4188 21.0938 22.2657V20.597C21.0938 18.3493 22.4086 16.3923 24.307 15.4595C25.8949 16.6524 27.8672 17.3591 30 17.3591C32.1328 17.3591 34.1051 16.6524 35.693 15.4595C37.5914 16.3923 38.9062 18.3493 38.9062 20.597Z" fill="#1565C0"/>
<path d="M18.0057 33.0088C17.6959 33.0088 17.3836 32.9109 17.1183 32.7085C16.4751 32.2177 16.3516 31.2985 16.8424 30.6552L19.4068 27.2945C19.8976 26.6514 20.8167 26.5279 21.4599 27.0187C22.1031 27.5095 22.2266 28.4287 21.7358 29.0719L19.1714 32.4325C18.8831 32.8103 18.4469 33.0088 18.0057 33.0088Z" fill="#41464A"/>
<path d="M41.9934 33.0089C41.5522 33.0089 41.1161 32.8104 40.8277 32.4326L38.2633 29.0719C37.7725 28.4288 37.896 27.5095 38.5392 27.0186C39.1823 26.5279 40.1015 26.6515 40.5923 27.2945L43.1567 30.6552C43.6475 31.2983 43.524 32.2175 42.8808 32.7084C42.6155 32.9109 42.3032 33.0089 41.9934 33.0089Z" fill="#41464A"/>
<path d="M35.7456 41.9238H24.2549C23.4458 41.9238 22.79 41.2679 22.79 40.459C22.79 39.65 23.4458 38.9941 24.2549 38.9941H35.7456C36.5546 38.9941 37.2104 39.65 37.2104 40.459C37.2104 41.2679 36.5546 41.9238 35.7456 41.9238Z" fill="#41464A"/>
</svg>
