<svg width="60" height="60" viewBox="0 0 60 60" fill="none" xmlns="http://www.w3.org/2000/svg">
<path d="M60 30C60 46.5685 46.5685 60 30 60C13.4314 60 -1.51148e-05 46.5685 -1.51148e-05 30C-1.51148e-05 13.4315 13.4314 0 30 0C46.5685 0 60 13.4315 60 30Z" fill="#1565C0"/>
<g clip-path="url(#clip0_389_357)">
<path d="M45 30C45 32.0625 43.3125 33.75 41.25 33.75H35C32.9375 33.75 31.25 32.0625 31.25 30C31.25 27.9375 32.9375 26.25 35 26.25H41.25C43.3125 26.25 45 27.9375 45 30ZM35 22.5H41.25C43.3125 22.5 45 20.8125 45 18.75C45 16.6875 43.3125 15 41.25 15H35C32.9375 15 31.25 16.6875 31.25 18.75C31.25 20.8125 32.9375 22.5 35 22.5ZM41.25 37.5H35C32.9375 37.5 31.25 39.1875 31.25 41.25C31.25 43.3125 32.9375 45 35 45H41.25C43.3125 45 45 43.3125 45 41.25C45 39.1875 43.3125 37.5 41.25 37.5ZM28.75 36.25V40C28.75 42.7625 26.5125 45 23.75 45H20C17.2375 45 15 42.7625 15 40V36.25C15 33.4875 17.2375 31.25 20 31.25H23.75C26.5125 31.25 28.75 33.4875 28.75 36.25ZM25 36.25C25 35.5625 24.4375 35 23.75 35H20C19.3125 35 18.75 35.5625 18.75 36.25V40C18.75 40.6875 19.3125 41.25 20 41.25H23.75C24.4375 41.25 25 40.6875 25 40V36.25ZM28.75 20V23.75C28.75 26.5125 26.5125 28.75 23.75 28.75H20C17.2375 28.75 15 26.5125 15 23.75V20C15 17.2375 17.2375 15 20 15H23.75C26.5125 15 28.75 17.2375 28.75 20ZM25 20C25 19.3125 24.4375 18.75 23.75 18.75H20C19.3125 18.75 18.75 19.3125 18.75 20V23.75C18.75 24.4375 19.3125 25 20 25H23.75C24.4375 25 25 24.4375 25 23.75V20Z" fill="#E3F2FD"/>
</g>
<defs>
<clipPath id="clip0_389_357">
<rect width="30" height="30" fill="white" transform="translate(15 15)"/>
</clipPath>
</defs>
</svg>
