<svg width="14" height="14" viewBox="0 0 14 14" fill="none" xmlns="http://www.w3.org/2000/svg">
<path d="M3.49991 1.45833C3.49991 0.65275 4.15266 0 4.95824 0C5.76382 0 6.41657 0.65275 6.41657 1.45833C6.41657 2.26392 5.76382 2.91667 4.95824 2.91667C4.15266 2.91667 3.49991 2.26392 3.49991 1.45833ZM3.23216 5.25H6.68491C7.04074 5.25 7.26532 4.84283 7.05299 4.55758C6.57699 3.9165 5.81866 3.5 4.95824 3.5C4.09782 3.5 3.33949 3.9165 2.86349 4.55758C2.65174 4.84283 2.87691 5.25 3.23216 5.25ZM13.4253 8.43967L10.3943 11.9064C9.23174 13.2364 7.55116 14 5.78366 14H2.62549C1.17824 14 0.000488281 12.8222 0.000488281 11.375V9.04167C0.000488281 7.59442 1.17824 6.41667 2.62549 6.41667H7.20874C7.75824 6.41667 8.25991 6.62608 8.63732 6.97025L10.0595 5.40692C10.4672 4.95892 11.0243 4.697 11.6287 4.66842C12.2307 4.641 12.8122 4.84983 13.2608 5.25758C14.1732 6.09 14.2472 7.51742 13.4247 8.43908L13.4253 8.43967ZM12.0819 6.55142C11.9804 6.45867 11.8556 6.40675 11.7109 6.41783C11.5732 6.42425 11.4467 6.48375 11.3539 6.58583L9.31399 8.82758C9.18682 9.75275 8.45357 10.5105 7.50916 10.6453L4.49857 11.0752C4.02199 11.1382 3.57749 10.8103 3.50866 10.3326C3.44041 9.85425 3.77291 9.41092 4.25124 9.34267L7.26182 8.91275C7.44499 8.88708 7.58324 8.72783 7.58324 8.54233C7.58324 8.33583 7.41524 8.16725 7.20816 8.16725H2.62491C2.14249 8.16725 1.74991 8.55983 1.74991 9.04225V11.3756C1.74991 11.858 2.14249 12.2506 2.62491 12.2506H5.78307C7.0454 12.2506 8.24591 11.7052 9.07657 10.7555L12.1134 7.28233C12.3059 7.06592 12.2896 6.741 12.0813 6.552L12.0819 6.55142Z" fill="white"/>
</svg>
