<svg width="61" height="60" viewBox="0 0 61 60" fill="none" xmlns="http://www.w3.org/2000/svg">
<path d="M60.9282 30C60.9282 46.5685 47.4967 60 30.9282 60C14.3597 60 0.928208 46.5685 0.928208 30C0.928208 13.4315 14.3597 0 30.9282 0C47.4967 0 60.9282 13.4315 60.9282 30Z" fill="#E8AE04"/>
<g clip-path="url(#clip0_389_359)">
<path d="M34.4774 39.1488C35.7012 39.6888 37.0512 39.995 38.4724 39.9988C38.4799 41.1825 38.0849 42.34 37.2974 43.255C36.3412 44.365 34.955 45 33.4925 45H21.0049C19.5424 45 18.1562 44.3625 17.2012 43.2525C16.2599 42.16 15.8424 40.7225 16.0549 39.3062C16.5624 35.9325 18.4112 32.8088 21.5562 30.0013C18.4099 27.1925 16.5612 24.0688 16.0537 20.695C15.8412 19.2788 16.2599 17.8413 17.1999 16.7488C18.1562 15.6375 19.5424 15 21.0049 15H33.4925C34.955 15 36.3412 15.635 37.2974 16.745C38.0849 17.6588 38.4799 18.8175 38.4724 20.0012C32.9712 20.0163 28.4999 24.495 28.4999 30C28.4999 30.82 28.6099 31.6125 28.7974 32.3762L28.0324 31.7663C27.5762 31.4037 26.9324 31.4037 26.4762 31.7638L25.5962 32.4625C23.6499 34.0013 21.0724 36.4775 19.8399 39.5325C19.6837 39.9187 19.7312 40.355 19.9624 40.7C20.1949 41.0437 20.5837 41.25 20.9987 41.25H33.4987C33.9149 41.25 34.3037 41.045 34.535 40.7C34.7674 40.3562 34.8137 39.9175 34.6574 39.5325C34.6049 39.4012 34.5362 39.2787 34.4787 39.15L34.4774 39.1488ZM45.9999 30C45.9999 34.1362 42.6362 37.5 38.4999 37.5C34.3637 37.5 30.9999 34.1362 30.9999 30C30.9999 25.8638 34.3637 22.5 38.4999 22.5C42.6362 22.5 45.9999 25.8638 45.9999 30ZM41.2587 30.9913L39.7499 29.4825V26.875C39.7499 26.185 39.1899 25.625 38.4999 25.625C37.8099 25.625 37.2499 26.185 37.2499 26.875V30C37.2499 30.3313 37.3812 30.65 37.6162 30.8837L39.4912 32.7587C39.7349 33.0025 40.0549 33.125 40.3749 33.125C40.6949 33.125 41.0149 33.0025 41.2587 32.7587C41.7474 32.27 41.7474 31.48 41.2587 30.9913ZM23.0574 38.7488H31.4349C30.2799 36.9625 28.5612 35.385 27.2499 34.34C25.9412 35.375 24.2099 36.9587 23.0574 38.7488Z" fill="#FFF3CE"/>
</g>
<defs>
<clipPath id="clip0_389_359">
<rect width="30" height="30" fill="white" transform="translate(16 15)"/>
</clipPath>
</defs>
</svg>
