<svg width="14" height="14" viewBox="0 0 14 14" fill="none" xmlns="http://www.w3.org/2000/svg">
<g clip-path="url(#clip0_202_1148)">
<path d="M13.5858 5.8027L12.2512 5.46908C12.139 5.08331 11.9854 4.71516 11.7955 4.36972L12.5034 3.18981C12.6326 2.97464 12.5987 2.69918 12.4212 2.52175L11.4783 1.5788C11.3008 1.40134 11.0254 1.36746 10.8102 1.49655L9.63028 2.20448C9.28484 2.01461 8.91669 1.86104 8.53092 1.74877L8.1973 0.414258C8.13643 0.170789 7.91771 0 7.66675 0H6.33322C6.08229 0 5.86354 0.170789 5.80267 0.41423L5.46905 1.74874C5.08329 1.86102 4.71513 2.01458 4.3697 2.20445L3.18979 1.49652C2.97459 1.36741 2.69916 1.40131 2.52172 1.57877L1.57877 2.52172C1.40134 2.69916 1.36743 2.97459 1.49652 3.18979L2.20445 4.3697C2.01458 4.71513 1.86102 5.08329 1.74874 5.46905L0.414203 5.80267C0.170789 5.86354 0 6.08229 0 6.33322V7.66675C0 7.91768 0.170789 8.13643 0.41423 8.1973L1.74877 8.53092C1.86104 8.91669 2.01461 9.28484 2.20448 9.63028L1.49655 10.8102C1.36743 11.0254 1.40134 11.3008 1.5788 11.4783L2.52175 12.4212C2.69918 12.5987 2.97464 12.6325 3.18981 12.5034L4.36972 11.7955C4.71516 11.9854 5.08331 12.139 5.46908 12.2512L5.8027 13.5857C5.86357 13.8292 6.08229 14 6.33325 14H7.66678C7.91771 14 8.13646 13.8292 8.19733 13.5857L8.53095 12.2512C8.91672 12.139 9.28487 11.9854 9.6303 11.7955L10.8102 12.5034C11.0254 12.6326 11.3008 12.5987 11.4783 12.4212L12.4212 11.4783C12.5987 11.3008 12.6326 11.0254 12.5035 10.8102L11.7955 9.63028C11.9854 9.28484 12.139 8.91669 12.2513 8.53092L13.5858 8.1973C13.8292 8.13643 14 7.91768 14 7.66675V6.33322C14 6.08229 13.8292 5.86354 13.5858 5.8027ZM7 9.1875C5.79381 9.1875 4.8125 8.20619 4.8125 7C4.8125 5.79381 5.79381 4.8125 7 4.8125C8.20619 4.8125 9.1875 5.79381 9.1875 7C9.1875 8.20619 8.20619 9.1875 7 9.1875Z" fill="white"/>
</g>
<defs>
<clipPath id="clip0_202_1148">
<rect width="14" height="14" fill="white"/>
</clipPath>
</defs>
</svg>
