<svg width="14" height="14" viewBox="0 0 14 14" fill="none" xmlns="http://www.w3.org/2000/svg">
<path d="M9.33428 11.3055L9.17726 11.9474C8.7062 12.1333 8.32991 12.2748 8.04971 12.3721C7.7692 12.4697 7.44328 12.5182 7.07192 12.5182C6.50165 12.5182 6.05808 12.3785 5.74172 12.1011C5.42536 11.8225 5.26713 11.4695 5.26713 11.0412C5.26713 10.8754 5.27861 10.7049 5.30248 10.5312C5.32656 10.3572 5.36483 10.1613 5.4172 9.94234L6.00591 7.85866C6.05828 7.65914 6.1028 7.47009 6.13846 7.29131C6.17461 7.11364 6.19204 6.95017 6.19204 6.80302C6.19204 6.53692 6.13694 6.35079 6.02726 6.24614C5.91758 6.1418 5.70828 6.08882 5.39756 6.08882C5.24538 6.08882 5.08896 6.11319 4.92952 6.16033C4.76938 6.20767 4.6325 6.2534 4.51758 6.2959L4.675 5.65351C5.06066 5.49649 5.42929 5.36203 5.78191 5.25043C6.13453 5.13853 6.46771 5.08253 6.78286 5.08253C7.3492 5.08253 7.78623 5.21941 8.09312 5.49317C8.40001 5.76712 8.5534 6.12226 8.5534 6.55988C8.5534 6.65043 8.54333 6.80997 8.52168 7.038C8.50053 7.26653 8.46115 7.47593 8.40374 7.66639L7.81755 9.74171C7.76951 9.9084 7.7263 10.099 7.68873 10.3134C7.64995 10.5264 7.63142 10.6892 7.63142 10.7984C7.63142 11.0739 7.69286 11.2621 7.81604 11.3621C7.94012 11.4621 8.15385 11.5119 8.45742 11.5119C8.59994 11.5119 8.7621 11.4866 8.94228 11.4369C9.12207 11.3873 9.2531 11.3437 9.33428 11.3055ZM9.48305 2.59265C9.48305 2.95423 9.34677 3.26304 9.07292 3.51695C8.79977 3.77177 8.47061 3.89928 8.08556 3.89928C7.6993 3.89928 7.36935 3.77177 7.09307 3.51695C6.8173 3.26294 6.67912 2.95423 6.67912 2.59265C6.67912 2.23177 6.8173 1.92246 7.09307 1.66532C7.36884 1.40859 7.69941 1.28027 8.08556 1.28027C8.47051 1.28027 8.79977 1.40889 9.07292 1.66532C9.34687 1.92246 9.48305 2.23187 9.48305 2.59265Z" fill="white"/>
</svg>
