<svg width="60" height="60" viewBox="0 0 60 60" fill="none" xmlns="http://www.w3.org/2000/svg">
<g clip-path="url(#clip0_1_1334)">
<path d="M32.395 10V29.1987L41.24 38.0425L37.705 41.5775L27.375 31.25L27.395 31.2275V10H32.395Z" fill="#1565C0"/>
<path d="M2.77 42.6739H0V48.6064H2.77C3.10875 49.9302 3.65875 51.1702 4.4025 52.2739L2.50125 54.1764L5.8675 57.5402L7.7975 55.6114C8.8625 56.3039 10.0437 56.8264 11.3075 57.1489V59.9189H17.2588V57.1502C18.55 56.8164 19.7612 56.2827 20.8425 55.5639L22.7 57.4189L26.065 54.0552L24.2088 52.2002C24.9237 51.1214 25.4587 49.9127 25.7938 48.6239H28.5662V42.6539H25.7938C25.4662 41.3952 24.9475 40.2152 24.2563 39.1539L26.0662 37.3427L22.7012 33.9789L20.9188 35.7589C19.82 35.0214 18.5875 34.4739 17.2712 34.1327V31.3564H11.2962V34.1327C10.0087 34.4677 8.80375 34.9989 7.72375 35.7152L5.87 33.8589L2.50375 37.2264L4.35875 39.0814C3.63625 40.1639 3.10125 41.3802 2.77 42.6739ZM9.3875 45.6389C9.3875 42.9352 11.58 40.7427 14.2825 40.7427C16.9875 40.7427 19.18 42.9352 19.18 45.6389C19.18 48.3427 16.9875 50.5352 14.2825 50.5352C11.58 50.5352 9.3875 48.3427 9.3875 45.6389Z" fill="#1565C0"/>
<path d="M0.03125 28.7461V31.2548C0.015 30.8373 0 30.4198 0 29.9998C0 29.5798 0.015 29.1623 0.03125 28.7461Z" fill="#1565C0"/>
<path d="M43.7654 3.33125C41.9054 2.375 39.9917 1.6475 38.0542 1.1125C37.9617 1.08625 37.8679 1.0625 37.7729 1.0375C37.3204 0.9175 36.8654 0.805 36.4092 0.7075C36.1279 0.645 35.8454 0.58875 35.5604 0.535C35.3117 0.48875 35.0617 0.44625 34.8117 0.40625C34.3692 0.33375 33.9242 0.27 33.4754 0.2175C33.4417 0.21375 33.4054 0.21 33.3704 0.20625C32.2642 0.08 31.1417 0 30.0004 0C13.8879 0 0.74793 12.7025 0.0341797 28.6387H5.06918C5.78043 15.4687 16.6529 5 30.0004 5C30.5204 5 31.0354 5.01625 31.5454 5.04875L31.5542 5.075C32.7142 5.1425 33.8742 5.29625 35.0292 5.5275C35.2592 5.575 35.4879 5.6225 35.7142 5.67625C35.8467 5.70625 35.9792 5.73875 36.1104 5.77125C37.9654 6.245 39.7379 6.92375 41.4042 7.7825L41.4304 7.75625C41.4454 7.76375 41.4604 7.77 41.4754 7.77875C46.7667 10.5025 50.6679 14.8563 52.8954 19.9088L52.8629 19.9412C54.2279 23.0187 55.0004 26.415 55.0004 30C55.0004 43.8075 43.8079 55 30.0004 55V60C41.6254 60 51.6979 53.3838 56.6792 43.7162L56.7142 43.735C64.2942 29 58.4967 10.9125 43.7654 3.33125Z" fill="#1565C0"/>
</g>
<defs>
<clipPath id="clip0_1_1334">
<rect width="60" height="60" fill="white"/>
</clipPath>
</defs>
</svg>
