<svg width="60" height="60" viewBox="0 0 60 60" fill="none" xmlns="http://www.w3.org/2000/svg">
<path d="M27.5 5L45.745 10.7C46.2539 10.8589 46.6986 11.1762 47.0143 11.6057C47.3301 12.0352 47.5002 12.5544 47.5 13.0875V17.5H52.5C53.163 17.5 53.7989 17.7634 54.2678 18.2322C54.7366 18.7011 55 19.337 55 20V25H22.5V20C22.5 19.337 22.7634 18.7011 23.2322 18.2322C23.7011 17.7634 24.337 17.5 25 17.5H42.5V14.925L27.5 10.235L12.5 14.925V33.435C12.4996 34.9656 12.8506 36.4758 13.5259 37.8493C14.2012 39.2229 15.1828 40.4231 16.395 41.3575L16.8675 41.6975L27.5 48.95L36.955 42.5H25C24.337 42.5 23.7011 42.2366 23.2322 41.7678C22.7634 41.2989 22.5 40.663 22.5 40V30H55V40C55 40.663 54.7366 41.2989 54.2678 41.7678C53.7989 42.2366 53.163 42.5 52.5 42.5L44.45 42.5025C43.4825 43.7775 42.3075 44.9025 40.95 45.8275L27.5 55L14.05 45.83C12.0313 44.4536 10.3794 42.605 9.23785 40.4448C8.09632 38.2846 7.49975 35.8783 7.5 33.435V13.0875C7.5003 12.5549 7.67072 12.0362 7.98641 11.6072C8.30209 11.1782 8.74655 10.8612 9.255 10.7025L27.5 5Z" fill="#1565C0"/>
</svg>
