<svg width="20" height="15" viewBox="0 0 20 15" fill="none" xmlns="http://www.w3.org/2000/svg">
<path d="M10 0.5C7.425 0.5 5.4 2.45625 5.11688 4.95312C4.57228 5.04088 4.06154 5.27425 3.63872 5.62852C3.2159 5.9828 2.89673 6.4448 2.715 6.96563C1.1775 7.40875 0 8.78 0 10.5C0 12.5775 1.6725 14.25 3.75 14.25H16.25C18.3275 14.25 20 12.5775 20 10.5C20 9.4 19.4656 8.415 18.6912 7.72625C18.5462 5.53 16.7944 3.7775 14.59 3.66375C13.8375 1.83313 12.1112 0.5 10 0.5ZM10 1.75C11.7262 1.75 13.1062 2.85625 13.5938 4.425L13.7312 4.875H14.375C16.0969 4.875 17.5 6.27812 17.5 8V8.3125L17.7537 8.50813C18.06 8.74284 18.3088 9.04414 18.4815 9.38924C18.6541 9.73433 18.7459 10.1142 18.75 10.5C18.75 11.9225 17.6725 13 16.25 13H3.75C2.3275 13 1.25 11.9225 1.25 10.5C1.25 9.2375 2.15625 8.2575 3.3 8.05875L3.71062 7.98063L3.78875 7.56938C3.97625 6.7275 4.7225 6.125 5.625 6.125H6.25V5.5C6.25 3.39375 7.89375 1.75 10 1.75ZM10 5.24625L9.55 5.67562L7.05 8.17562L7.95 9.07563L9.375 7.64813V11.75H10.625V7.64813L12.05 9.07438L12.95 8.17437L10.45 5.67438L10 5.24625Z" fill="#002855"/>
</svg>
